<?xml version="1.0" encoding="UTF-8"?>
<svg width="275px" height="275px" viewBox="0 0 275 275" version="1.1" xmlns="http://www.w3.org/2000/svg" xmlns:xlink="http://www.w3.org/1999/xlink">
    <title>Favicon</title>
    <g id="Favicon" stroke="none" stroke-width="1" fill="none" fill-rule="evenodd">
        <rect id="Rectangle" fill="#314659" x="0" y="0" width="275" height="275" rx="25"></rect>
        <path d="M96.9176224,196 C99.8310029,196 102.385413,195.588542 104.580854,194.765625 C105.683776,194.348958 106.490158,193.932292 107,193.515625 L107,193.515625 L106.172808,188.734375 C104.643283,190.848958 102.82242,192.380208 100.71022,193.328125 C99.6489166,193.796875 98.7436877,194.057292 97.9945327,194.109375 C94.196733,194.109375 90.7318912,192.765625 87.6000071,190.078125 C84.2079998,187.161458 82.5119961,183.609375 82.5119961,179.421875 C82.5119961,175.046875 83.7501828,171.609375 86.2265563,169.109375 C88.671715,166.651042 92.0116976,165.421875 96.2465043,165.421875 C99.7529659,165.421875 102.416628,166.588542 104.237491,168.921875 C105.153125,170.088542 105.720194,171.255208 105.938697,172.421875 L105.938697,172.421875 L107,165.34375 C105.5225,164.895833 101.823547,164.447917 95.9031416,164 C88.5572607,164 83.5368818,166.5625 80.8420048,171.6875 C79.4997687,174.239583 78.8910803,176.796875 79.0159395,179.359375 C79.0159395,184.838542 80.6807283,189.020833 84.0103061,191.90625 C86.9340916,194.447917 90.8931676,195.807292 95.8875342,195.984375 L95.8875342,195.984375 L96.2447702,195.993056 C96.4783031,195.997685 96.7025871,196 96.9176224,196 Z M125.523693,196 C129.171308,196 132.542745,194.703641 135.638007,192.110924 C139.212669,189.112118 141,185.290723 141,180.646739 C141,175.89863 139.264778,171.863779 135.794333,168.542185 C132.636541,165.532967 129.212995,164.028358 125.523693,164.028358 C122.77235,163.861757 120.021006,164.42924 117.269663,165.730805 C111.756554,168.323522 109,173.259056 109,180.537408 C109,185.743668 110.964501,189.768107 114.893503,192.610725 C118.020029,194.870242 121.563426,196 125.523693,196 Z M126,195 L126,166 C126.329218,166.052679 126.662551,166.126431 127,166.221253 L127,194.905177 C126.646091,194.957856 126.312757,194.989464 126,195 Z M123.925293,195 C123.65446,194.947148 123.370931,194.883725 123.074707,194.809732 L123.074707,166.174412 C123.354004,166.100419 123.637533,166.042282 123.925293,166 L123.925293,195 Z M122,195 C119.61658,194.295399 117.673575,193.049202 116.170984,191.261408 C114.056995,188.737465 113,185.30385 113,180.960563 C113,176.617277 114.056995,173.194178 116.170984,170.691268 C117.673575,168.924507 119.61658,167.694085 122,167 L122,195 Z M128,195 L128,167 C130.365188,167.741653 132.300341,169.031711 133.805461,170.870173 C135.935154,173.471181 137,176.996642 137,181.446558 C137,185.886029 135.935154,189.301809 133.805461,191.6939 C132.300341,193.386122 130.365188,194.488155 128,195 Z M155.613353,196 C160.654562,196 164.719554,194.682292 167.808327,192.046875 C171.258663,189.088542 172.983831,184.822917 172.983831,179.25 C173.107795,176.708333 172.518965,174.166667 171.217342,171.625 C168.603764,166.541667 163.733005,164 156.605066,164 L143,164 C144.4979,164.385417 145.468953,164.885417 145.913158,165.5 C146.140425,165.802083 146.212738,166.072917 146.130095,166.3125 L146.130095,194.015625 C146.026792,194.557292 145.510274,195.041667 144.580543,195.46875 L143,196 L155.613353,196 Z M150,192.566175 L150,168.05298 C151.711007,166.684327 153.891497,166 156.541471,166 C160.693792,166 163.964528,167.184804 166.353678,169.554413 C168.784559,171.94445 170,175.23841 170,179.436295 C170,183.470758 168.335942,186.953675 165.007825,189.885044 C161.909233,192.622351 158.513302,193.991004 154.820031,193.991004 C152.754304,194.072715 151.147626,193.597772 150,192.566175 Z M193.368691,196 L194,190.484375 C193.661249,191.182292 193.173653,191.885417 192.537211,192.59375 C191.264328,194 189.893926,194.703125 188.426005,194.703125 C186.968349,194.703125 185.608212,194.255208 184.345595,193.359375 C183.719418,192.911458 183.236955,192.463542 182.898204,192.015625 L182.898204,192.015625 L182.898204,180.140625 L187.933276,180.140625 C189.514115,180.140625 190.643285,180.703125 191.320787,181.828125 C191.659538,182.390625 191.839179,182.958333 191.859709,183.53125 L191.859709,183.53125 L192.629598,177.265625 C191.808383,177.942708 190.761334,178.296875 189.488452,178.328125 L189.488452,178.328125 L182.898204,178.328125 L182.898204,166.359375 L188.887938,166.359375 C190.160821,166.359375 191.08982,166.942708 191.674936,168.109375 C191.972626,168.682292 192.142002,169.260417 192.183062,169.84375 L192.183062,169.84375 L193.368691,164 L192.183062,164.5625 L176,164.5625 C177.673225,165.052083 178.740804,165.776042 179.202737,166.734375 C179.221582,176.480799 179.234661,183.522061 179.241974,187.85816 L179.243003,188.4734 C179.243497,188.771365 179.24396,189.054846 179.244393,189.323844 L179.245216,189.842528 C179.245346,189.925757 179.245473,190.007377 179.245597,190.087387 L179.246615,190.764031 C179.246718,190.834386 179.246818,190.903131 179.246914,190.970268 L179.247686,191.531045 C179.247761,191.588525 179.247833,191.644397 179.247902,191.698659 L179.248931,192.84375 C179.248931,193.770833 178.797263,194.578125 177.893926,195.265625 C177.442258,195.598958 176.995723,195.84375 176.55432,196 L176.55432,196 L193.368691,196 Z M24.9176224,235 C27.8310029,235 30.3854133,234.588542 32.5808537,233.765625 C33.6837763,233.348958 34.4901584,232.932292 35,232.515625 L35,232.515625 L34.172808,227.734375 C32.6432832,229.848958 30.8224204,231.380208 28.7102195,232.328125 C27.6489166,232.796875 26.7436877,233.057292 25.9945327,233.109375 C22.196733,233.109375 18.7318912,231.765625 15.6000071,229.078125 C12.2079998,226.161458 10.5119961,222.609375 10.5119961,218.421875 C10.5119961,214.046875 11.7501828,210.609375 14.2265563,208.109375 C16.671715,205.651042 20.0116976,204.421875 24.2465043,204.421875 C27.7529659,204.421875 30.4166281,205.588542 32.237491,207.921875 C33.1531248,209.088542 33.7201936,210.255208 33.9386971,211.421875 L33.9386971,211.421875 L35,204.34375 C33.5224999,203.895833 29.8235471,203.447917 23.9031416,203 C16.5572607,203 11.5368818,205.5625 8.84200477,210.6875 C7.49976874,213.239583 6.8910803,215.796875 7.01593947,218.359375 C7.01593947,223.838542 8.68072835,228.020833 12.0103061,230.90625 C14.9340916,233.447917 18.8931676,234.807292 23.8875342,234.984375 L23.8875342,234.984375 L24.2447702,234.993056 C24.4783031,234.997685 24.7025871,235 24.9176224,235 Z M47.3222336,235 C46.8881489,234.854167 46.4434768,234.619792 45.9882172,234.296875 C45.098873,233.661458 44.6224385,232.911458 44.5589139,232.046875 L44.5589139,218.5625 L62.4410861,218.5625 L62.4410861,232.046875 C62.3775615,232.911458 61.901127,233.661458 61.0117828,234.296875 C60.5565232,234.619792 60.1118511,234.854167 59.6777664,235 L69,235 C68.5659153,234.854167 68.1265369,234.619792 67.6818648,234.296875 C66.7819331,233.661458 66.3002049,232.911458 66.2366803,232.046875 L66.2366803,205.953125 C66.3002049,205.088542 66.7819331,204.338542 67.6818648,203.703125 C68.1265369,203.380208 68.5659153,203.145833 69,203 L59.6777664,203 C60.1118511,203.145833 60.5565232,203.380208 61.0117828,203.703125 C61.901127,204.338542 62.3775615,205.088542 62.4410861,205.953125 L62.4410861,216.34375 L44.5589139,216.34375 L44.5589139,205.953125 C44.6224385,205.088542 45.098873,204.338542 45.9882172,203.703125 C46.4434768,203.380208 46.8881489,203.145833 47.3222336,203 L38,203 C38.4340847,203.145833 38.8734631,203.380208 39.3181352,203.703125 C40.2180669,204.338542 40.6997951,205.088542 40.7633197,205.953125 L40.7633197,232.046875 C40.6997951,232.911458 40.2180669,233.661458 39.3181352,234.296875 C38.8734631,234.619792 38.4340847,234.854167 38,235 L47.3222336,235 Z M83.4081942,235 C83.0005058,234.90625 82.5928174,234.755208 82.185129,234.546875 C81.3592986,234.109375 80.9463834,233.583333 80.9463834,232.96875 L84.3333333,222.859375 L93.1927162,222.859375 L97.3166414,233.46875 C96.166751,233.791667 95.3461474,234.302083 94.8548306,235 L105,235 C104.581858,234.90625 104.116675,234.723958 103.604451,234.453125 C102.580003,233.911458 101.837801,233.192708 101.377845,232.296875 L101.31672,232.175914 C100.430976,230.382455 96.348333,220.65715 89.0687911,203 L78.0612038,232.0625 C77.9253077,232.479167 77.6535154,232.916667 77.245827,233.375 C76.4409037,234.28125 75.3589614,234.822917 74,235 L83.4081942,235 Z M93,221 L85,220.968208 L89.063745,210 L93,221 Z M128.329412,235 L129,229.390625 C128.638095,230.098958 128.121849,230.8125 127.451261,231.53125 C126.110084,232.958333 124.667787,233.671875 123.12437,233.671875 C121.570308,233.671875 120.133333,233.21875 118.813445,232.3125 C118.142857,231.854167 117.631933,231.395833 117.280672,230.9375 L117.280564,205.219077 L117.280564,205.179692 L117.280672,205.125 C117.887395,204.166667 118.994398,203.458333 120.601681,203 L110,203 C111.766947,203.5 112.889916,204.239583 113.368908,205.21875 C113.38957,215.706495 113.403547,223.117341 113.41084,227.451287 L113.411793,228.023208 C113.411945,228.115349 113.412093,228.205902 113.412238,228.294864 L113.413067,228.80957 C113.413198,228.892176 113.413326,228.973192 113.41345,229.052619 L113.414476,229.724552 C113.41458,229.794443 113.41468,229.862745 113.414776,229.929458 L113.415771,230.653722 C113.41584,230.707721 113.415906,230.760129 113.415968,230.810949 L113.416807,231.796875 L113.416807,231.796875 C113.416807,232.734375 112.943137,233.552083 111.995798,234.25 C111.527451,234.59375 111.053782,234.84375 110.57479,235 L128.329412,235 Z M117.456499,229.913887 L117.45729,229.178695 C117.457367,229.110976 117.457447,229.041643 117.457529,228.970698 L117.458344,228.288627 C117.458443,228.208002 117.458545,228.125763 117.458649,228.041911 L117.459308,227.51944 C117.459423,227.429135 117.459541,227.337216 117.459662,227.243684 L117.46042,226.663135 C117.466219,222.2638 117.477332,214.741143 117.493762,204.095164 C117.510689,204.074017 117.527616,204.042295 117.544543,204 L117.544457,204.055517 L117.544457,204.095496 L117.455457,231 L117.456343,230.073486 C117.456392,230.021899 117.456445,229.9687 117.456499,229.913887 Z M151.329412,235 L152,229.390625 C151.638095,230.098958 151.121849,230.8125 150.451261,231.53125 C149.110084,232.958333 147.667787,233.671875 146.12437,233.671875 C144.570308,233.671875 143.133333,233.21875 141.813445,232.3125 C141.142857,231.854167 140.631933,231.395833 140.280672,230.9375 L140.279582,205.219077 L140.279582,205.179692 L140.280672,205.125 C140.887395,204.166667 141.994398,203.458333 143.601681,203 L133,203 C134.766947,203.5 135.889916,204.239583 136.368908,205.21875 C136.388631,215.229779 136.402263,222.43727 136.409804,226.841222 L136.41084,227.451287 C136.411006,227.549786 136.411168,227.646695 136.411327,227.742015 L136.412238,228.294864 C136.412384,228.383827 136.412525,228.471201 136.412663,228.556985 L136.41345,229.052619 C136.413575,229.132047 136.413696,229.209884 136.413813,229.286133 L136.414776,229.929458 C136.414873,229.99617 136.414966,230.061294 136.415056,230.124828 L136.415968,230.810949 C136.41603,230.861769 136.416089,230.910999 136.416144,230.95864 L136.416807,231.796875 L136.416807,231.796875 C136.416807,232.734375 135.943137,233.552083 134.995798,234.25 C134.527451,234.59375 134.053782,234.84375 133.57479,235 L151.329412,235 Z M140.456752,229.56565 L140.45742,228.970698 C140.457502,228.899752 140.457587,228.827193 140.457675,228.753021 L140.45854,228.041911 C140.458644,227.958059 140.458751,227.872594 140.458861,227.785515 L140.459553,227.243684 C140.460157,226.776026 140.46083,226.268035 140.461571,225.719712 L140.462493,225.042365 C140.468704,220.513773 140.47909,213.531373 140.493652,204.095164 C140.510579,204.074017 140.527507,204.042295 140.544434,204 L140.543566,204.055517 L140.543566,204.095496 L140.455566,231 L140.456563,229.744609 C140.456623,229.686569 140.456687,229.626916 140.456752,229.56565 Z M173.368691,235 L174,229.484375 C173.661249,230.182292 173.173653,230.885417 172.537211,231.59375 C171.264328,233 169.893926,233.703125 168.426005,233.703125 C166.968349,233.703125 165.608212,233.255208 164.345595,232.359375 C163.719418,231.911458 163.236955,231.463542 162.898204,231.015625 L162.898204,231.015625 L162.898204,219.140625 L167.933276,219.140625 C169.514115,219.140625 170.643285,219.703125 171.320787,220.828125 C171.659538,221.390625 171.839179,221.958333 171.859709,222.53125 L171.859709,222.53125 L172.629598,216.265625 C171.808383,216.942708 170.761334,217.296875 169.488452,217.328125 L169.488452,217.328125 L162.898204,217.328125 L162.898204,205.359375 L168.887938,205.359375 C170.160821,205.359375 171.08982,205.942708 171.674936,207.109375 C171.972626,207.682292 172.142002,208.260417 172.183062,208.84375 L172.183062,208.84375 L173.368691,203 L172.183062,203.5625 L156,203.5625 C157.673225,204.052083 158.740804,204.776042 159.202737,205.734375 C159.221123,215.243081 159.23402,222.176975 159.241429,226.536057 L159.242499,227.170608 C159.243014,227.478228 159.243497,227.771365 159.24395,228.050018 L159.244815,228.588014 C159.244952,228.674461 159.245086,228.759299 159.245216,228.842528 L159.245957,229.322591 C159.246073,229.399383 159.246187,229.474565 159.246296,229.548139 L159.247192,230.166849 C159.247281,230.230767 159.247367,230.293075 159.247449,230.353775 L159.24856,231.272562 C159.248601,231.31395 159.248639,231.353729 159.248673,231.391899 L159.248931,231.84375 C159.248931,232.770833 158.797263,233.578125 157.893926,234.265625 C157.442258,234.598958 156.995723,234.84375 156.55432,235 L156.55432,235 L173.368691,235 Z M189.043813,235 C188.622693,234.854167 188.196437,234.619792 187.765046,234.296875 C186.891992,233.661458 186.424651,232.911458 186.363024,232.046875 L186.363024,210.859375 L209.303804,235 L209.303804,234.96875 L209.31921,235 L209.31921,205.953125 C209.380838,205.088542 209.848178,204.338542 210.721233,203.703125 C211.152624,203.380208 211.57888,203.145833 212,203 L202.956187,203 C203.377307,203.145833 203.803563,203.380208 204.234954,203.703125 C205.108008,204.338542 205.575349,205.088542 205.636976,205.953125 L205.636976,227.4375 L182.68079,203 L182.68079,232.046875 C182.619162,232.911458 182.151822,233.661458 181.278767,234.296875 C180.847376,234.619792 180.42112,234.854167 180,235 L189.043813,235 Z M231.973877,235 C234.896405,235 237.406647,234.630208 239.504605,233.890625 C240.548364,233.515625 241.299871,233.145833 241.759126,232.78125 L241.759126,232.78125 L241.759126,221.734375 C241.675625,221.494792 241.753907,221.21875 241.993972,220.90625 C242.453226,220.270833 243.455235,219.760417 245,219.375 L245,219.375 L234.74506,219.375 C236.289824,219.760417 237.291834,220.270833 237.751088,220.90625 C237.980715,221.21875 238.058997,221.494792 237.985934,221.734375 L237.985934,221.734375 L237.985934,231.625 C236.806485,232.708333 235.162564,233.203125 233.054169,233.109375 C229.244445,233.109375 225.768725,231.765625 222.627008,229.078125 C219.224351,226.161458 217.523023,222.609375 217.523023,218.421875 C217.523023,214.046875 218.765097,210.609375 221.249245,208.109375 C223.702081,205.640625 227.05255,204.40625 231.300652,204.40625 C234.818123,204.40625 237.490148,205.578125 239.316728,207.921875 C240.235236,209.088542 240.804085,210.255208 241.023275,211.421875 L241.023275,211.421875 L242.103566,204.34375 C240.61099,203.895833 236.895205,203.447917 230.956212,203 C223.587267,203 218.551126,205.5625 215.847788,210.6875 C214.501338,213.239583 213.890738,215.796875 214.01599,218.359375 C214.01599,224.036458 215.800819,228.317708 219.370477,231.203125 C222.501757,233.734375 226.70289,235 231.973877,235 Z M264.368691,235 L265,229.484375 C264.661249,230.182292 264.173653,230.885417 263.537211,231.59375 C262.264328,233 260.893926,233.703125 259.426005,233.703125 C257.968349,233.703125 256.608212,233.255208 255.345595,232.359375 C254.719418,231.911458 254.236955,231.463542 253.898204,231.015625 L253.898204,231.015625 L253.898204,219.140625 L258.933276,219.140625 C260.514115,219.140625 261.643285,219.703125 262.320787,220.828125 C262.659538,221.390625 262.839179,221.958333 262.859709,222.53125 L262.859709,222.53125 L263.629598,216.265625 C262.808383,216.942708 261.761334,217.296875 260.488452,217.328125 L260.488452,217.328125 L253.898204,217.328125 L253.898204,205.359375 L259.887938,205.359375 C261.160821,205.359375 262.08982,205.942708 262.674936,207.109375 C262.972626,207.682292 263.142002,208.260417 263.183062,208.84375 L263.183062,208.84375 L264.368691,203 L263.183062,203.5625 L247,203.5625 C248.673225,204.052083 249.740804,204.776042 250.202737,205.734375 C250.222042,215.718517 250.235296,222.863928 250.242499,227.170608 L250.243487,227.766537 C250.243645,227.86264 250.243799,227.957134 250.24395,228.050018 L250.244815,228.588014 C250.244952,228.674461 250.245086,228.759299 250.245216,228.842528 L250.245957,229.322591 C250.246073,229.399383 250.246187,229.474565 250.246296,229.548139 L250.247192,230.166849 C250.247281,230.230767 250.247367,230.293075 250.247449,230.353775 L250.248426,231.14357 C250.248475,231.188176 250.248519,231.231174 250.24856,231.272562 L250.248931,231.84375 C250.248931,232.770833 249.797263,233.578125 248.893926,234.265625 C248.442258,234.598958 247.995723,234.84375 247.55432,235 L247.55432,235 L264.368691,235 Z" id="CodeChallenge" fill="#EEEEDE" fill-rule="nonzero"></path>
        <path d="M66.7034096,138 C74.6225164,138 81.4244635,136.983073 87.1092509,134.949219 C89.9375034,133.917969 91.9738451,132.901042 93.2182762,131.898438 L93.2182762,131.898438 L93.2182762,101.519531 C92.992016,100.860677 93.2041349,100.101562 93.854633,99.2421875 C95.0990641,97.4947917 97.8141864,96.0911458 102,95.03125 L102,95.03125 L74.2124198,95.03125 C78.3982334,96.0911458 81.1133558,97.4947917 82.3577868,99.2421875 C82.9800024,100.101562 83.1921213,100.860677 82.9941436,101.519531 L82.9941436,101.519531 L82.9941436,128.71875 C79.7982184,131.697917 75.3437208,133.058594 69.6306509,132.800781 C59.3075295,132.800781 49.8894489,129.105469 41.376409,121.714844 C32.1563061,113.69401 27.5462546,103.925781 27.5462546,92.4101562 C27.5462546,80.3789062 30.911875,70.9257812 37.6431158,64.0507812 C44.289509,57.2617188 53.3681994,53.8671875 64.8791868,53.8671875 C74.4103975,53.8671875 81.6507237,57.0898438 86.6001655,63.5351562 C89.0890276,66.7434896 90.6304252,69.9518229 91.2243582,73.1601562 L91.2243582,73.1601562 L94.1515995,53.6953125 C90.1071985,52.4635417 80.0386198,51.2317708 63.9458635,50 C43.9784013,50 30.3320833,57.046875 23.0069094,71.140625 C19.3584638,78.1588542 17.7039361,85.1914062 18.0433264,92.2382812 C18.0433264,107.85026 22.8796381,119.623698 32.5522614,127.558594 C41.0370187,134.519531 52.4207348,138 66.7034096,138 Z M154.440156,138 C164.471096,138 173.74255,134.435013 182.254519,127.30504 C192.08484,119.058325 197,108.549489 197,95.7785332 C197,82.7212332 192.228139,71.6253916 182.684416,62.4910085 C174.000489,54.2156582 164.585735,50.0779831 154.440156,50.0779831 C146.873962,49.6198323 139.307767,51.1804087 131.741573,54.7597124 C116.580524,61.8896854 109,75.4624052 109,95.4778717 C109,109.795087 114.402377,120.862294 125.207132,128.679493 C133.805081,134.893164 143.549422,138 154.440156,138 Z M154,133 L154,55 C155.316872,55.1416894 156.650206,55.3400545 158,55.5950954 L158,132.744959 C156.584362,132.886649 155.251029,132.971662 154,133 Z M149,133 C148.363184,132.857846 147.696517,132.687261 147,132.488245 L147,55.4691088 C147.656716,55.2700929 148.323383,55.1137233 149,55 L149,133 Z M144,132 C137.644214,130.087512 132.462867,126.704977 128.455959,121.852394 C122.818653,115.00169 120,105.681878 120,93.8929577 C120,82.1040376 122.818653,72.81277 128.455959,66.0191549 C132.462867,61.223662 137.644214,57.8839437 144,56 L144,132 Z M160,133 L160,56 C166.307167,58.0395449 171.467577,61.5872039 175.481229,66.6429771 C181.16041,73.7957471 184,83.4907666 184,95.7280358 C184,107.936579 181.16041,117.329976 175.481229,123.908226 C171.467577,128.561835 166.307167,131.592427 160,133 Z M236.151439,138 C234.971214,137.598958 233.776596,136.954427 232.567584,136.066406 C230.120776,134.31901 228.811014,132.25651 228.638298,129.878906 L228.638298,103.066406 C228.667084,89.3450521 228.69587,74.1627604 228.724656,57.5195312 L228.724656,56.4882812 L245.434919,56.4882812 C249.00438,56.4882812 251.609512,58.0924479 253.250313,61.3007812 C254.085106,62.8763021 254.560075,64.4661458 254.675219,66.0703125 L258,50 L254.675219,51.546875 L192.324781,51.546875 L189,50 L192.324781,66.0703125 C192.439925,64.4661458 192.900501,62.8763021 193.706508,61.3007812 C195.376095,58.0924479 197.99562,56.4882812 201.565081,56.4882812 L218.232165,56.4882812 L218.275344,57.5195312 C218.30413,74.1627604 218.332916,89.3450521 218.361702,103.066406 L218.361702,129.878906 C218.1602,132.25651 216.850438,134.31901 214.432416,136.066406 C213.194618,136.954427 211.985607,137.598958 210.805382,138 L236.151439,138 Z" id="Got" fill="#EEEEDE" fill-rule="nonzero"></path>
    </g>
</svg>